<?xml version="1.0" encoding="iso-8859-1"?>
<!-- Generator: Adobe Illustrator 19.0.0, SVG Export Plug-In . SVG Version: 6.00 Build 0)  -->
<svg xmlns="http://www.w3.org/2000/svg" xmlns:xlink="http://www.w3.org/1999/xlink" version="1.1" id="Capa_1" x="0px" y="0px" viewBox="0 0 512 512" style="enable-background:new 0 0 512 512;" xml:space="preserve" width="512px" height="512px">
<g>
	<g>
		<path d="M122.099,0C54.774,0,0,54.772,0,122.097s54.772,122.097,122.097,122.097s122.097-54.772,122.097-122.097    S189.424,0,122.099,0z M147.204,167.606c-2.965,2.467-6.337,4.39-10.116,5.77v13.222c0,8.278-6.711,14.989-14.989,14.989    s-14.989-6.711-14.989-14.989v-12.155c-3.977-0.973-7.674-2.396-11.079-4.288c-7.017-3.897-10.526-8.284-10.526-13.158    c0-2.728,0.998-5.458,2.997-8.188c1.997-2.727,4.313-4.094,6.945-4.094c1.462,0,3.094,0.592,4.897,1.773    c1.803,1.183,3.459,2.492,4.971,3.929c1.511,1.439,3.63,2.749,6.36,3.93c2.727,1.184,5.604,1.773,8.627,1.773    c3.801,0,7.114-0.804,9.942-2.412c2.826-1.609,4.24-4.021,4.24-7.238s-1.586-6.043-4.752-8.48    c-3.169-2.436-7.018-4.654-11.551-6.652c-4.532-1.997-9.09-4.24-13.671-6.725c-4.583-2.485-8.457-6.018-11.623-10.6    c-3.169-4.581-4.751-10.038-4.751-16.376c0-10.332,3.654-18.056,10.966-23.173c2.492-1.745,5.164-3.185,8.008-4.334V56.287    c0-8.278,6.711-14.989,14.989-14.989c8.278,0,14.989,6.711,14.989,14.989v11.464c1.819,0.313,3.743,0.711,5.804,1.22    c3.459,0.854,6.287,2.234,8.48,4.143c2.193,1.91,3.29,4.219,3.29,6.929c0,2.577-0.804,5.25-2.412,8.023    c-1.608,2.773-3.826,4.16-6.652,4.16c-1.17,0-3.655-0.925-7.456-2.778c-3.802-1.851-7.994-2.778-12.574-2.778    c-4.875,0-8.531,0.854-10.967,2.559c-2.436,1.707-3.654,3.778-3.654,6.214c0,2.243,1.145,4.291,3.435,6.141    c2.289,1.853,5.14,3.435,8.554,4.751c3.41,1.316,7.14,3.022,11.185,5.117c4.043,2.097,7.771,4.387,11.184,6.872    c3.411,2.485,6.262,5.973,8.554,10.454c2.289,4.484,3.435,9.601,3.435,15.352C157.293,154.182,153.929,162.007,147.204,167.606z" fill="#FFFFFF"/>
	</g>
</g>
<g>
	<g>
		<path d="M346.673,181.345c-91.161,0-165.326,74.166-165.326,165.327S255.513,512,346.673,512S512,437.835,512,346.674    S437.835,181.345,346.673,181.345z M381.91,410.548c-5.681,4.729-12.436,8.025-20.248,9.908v16.748    c0,8.278-6.711,14.989-14.989,14.989c-8.278,0-14.989-6.711-14.989-14.989v-15.847c-7.935-1.235-15.138-3.639-21.6-7.23    c-9.85-5.471-14.775-11.627-14.775-18.469c0-3.828,1.401-7.66,4.207-11.491c2.803-3.829,6.055-5.747,9.748-5.747    c2.052,0,4.342,0.83,6.875,2.488c2.529,1.661,4.854,3.498,6.977,5.516c2.119,2.02,5.095,3.857,8.927,5.516    c3.828,1.661,7.865,2.487,12.108,2.487c5.335,0,9.985-1.128,13.955-3.385c3.967-2.258,5.951-5.644,5.951-10.159    c0-4.516-2.225-8.481-6.669-11.902c-4.448-3.418-9.851-6.532-16.213-9.338c-6.361-2.803-12.759-5.952-19.188-9.44    c-6.432-3.488-11.87-8.446-16.314-14.878c-4.448-6.43-6.67-14.091-6.67-22.985c0-14.503,5.13-25.344,15.391-32.527    c5.215-3.65,10.981-6.368,17.291-8.164V254.3c0-8.278,6.711-14.989,14.989-14.989c8.278,0,14.989,6.711,14.989,14.989v15.271    c0.355,0.035,0.703,0.063,1.061,0.102c3.898,0.424,8.275,1.234,13.134,2.434c4.853,1.199,8.823,3.137,11.902,5.813    c3.078,2.681,4.618,5.923,4.618,9.725c0,3.617-1.129,7.37-3.387,11.263c-2.258,3.893-5.371,5.839-9.338,5.839    c-1.642,0-5.13-1.299-10.466-3.898c-5.336-2.598-11.22-3.899-17.649-3.899c-6.843,0-11.972,1.199-15.391,3.591    c-3.422,2.395-5.13,5.304-5.13,8.723c0,3.149,1.606,6.022,4.822,8.619c3.213,2.601,7.215,4.822,12.005,6.67    c4.787,1.848,10.02,4.242,15.699,7.183c5.676,2.944,10.908,6.156,15.699,9.645c4.786,3.488,8.788,8.383,12.005,14.674    c3.213,6.294,4.822,13.476,4.822,21.547C396.071,391.706,391.35,402.688,381.91,410.548z" fill="#FFFFFF"/>
	</g>
</g>
<g>
</g>
<g>
</g>
<g>
</g>
<g>
</g>
<g>
</g>
<g>
</g>
<g>
</g>
<g>
</g>
<g>
</g>
<g>
</g>
<g>
</g>
<g>
</g>
<g>
</g>
<g>
</g>
<g>
</g>
</svg>
