<?xml version="1.0" encoding="iso-8859-1"?>
<!-- Generator: Adobe Illustrator 19.0.0, SVG Export Plug-In . SVG Version: 6.00 Build 0)  -->
<svg xmlns="http://www.w3.org/2000/svg" xmlns:xlink="http://www.w3.org/1999/xlink" version="1.1" id="Capa_1" x="0px" y="0px" viewBox="0 0 480 480" style="enable-background:new 0 0 480 480;" xml:space="preserve" width="512px" height="512px">
<g>
	<g>
		<path d="M472,464h-24v-16c0-4.8-3.2-8-8-8s-8,3.2-8,8v16h-32v-16c0-4.8-3.2-8-8-8s-8,3.2-8,8v16h-32v-16c0-4.8-3.2-8-8-8    s-8,3.2-8,8v16h-32v-16c0-4.8-3.2-8-8-8s-8,3.2-8,8v16h-32v-16c0-4.8-3.2-8-8-8s-8,3.2-8,8v16h-32v-16c0-4.8-3.2-8-8-8s-8,3.2-8,8    v16h-32v-16c0-4.8-3.2-8-8-8s-8,3.2-8,8v16h-32v-16c0-4.8-3.2-8-8-8s-8,3.2-8,8v16H64v-16c0-4.8-3.2-8-8-8s-8,3.2-8,8v16H16V8    c0-4.8-3.2-8-8-8S0,3.2,0,8v464c0,4.8,3.2,8,8,8h464c4.8,0,8-3.2,8-8S476.8,464,472,464z" fill="#FFFFFF"/>
	</g>
</g>
<g>
	<g>
		<path d="M437.6,170.4c-3.2-3.2-8-3.2-11.2,0L320,276.8l-98.4-98.4c-3.2-3.2-8-3.2-11.2,0l-176,176c-3.2,3.2-3.2,8,0,11.2    c1.6,1.6,3.2,2.4,5.6,2.4s4-0.8,5.6-2.4L216,195.2l98.4,98.4c3.2,3.2,8,3.2,11.2,0l112-112C440.8,178.4,440.8,173.6,437.6,170.4z" fill="#FFFFFF"/>
	</g>
</g>
<g>
</g>
<g>
</g>
<g>
</g>
<g>
</g>
<g>
</g>
<g>
</g>
<g>
</g>
<g>
</g>
<g>
</g>
<g>
</g>
<g>
</g>
<g>
</g>
<g>
</g>
<g>
</g>
<g>
</g>
</svg>
